<svg width="131" height="56" viewBox="0 0 131 56" fill="none" xmlns="http://www.w3.org/2000/svg">
<path d="M21.8948 0L26.9991 5.10429L22.5315 9.57151V17.5797L26.998 22.0462L21.8937 27.1505L17.4279 22.6845H9.56865L5.10429 27.1493L0 22.045L4.46762 17.5771V9.57278L0.00109315 5.10619L5.10538 0.00190093L10.2097 5.10619L5.74653 9.56896V17.5829L9.56928 21.4056H17.4298L21.2526 17.5829V9.56642L16.7905 5.10429L21.8948 0ZM39.0281 0.00151791L44.1324 5.10581L39.6696 9.56833V17.5829L43.4924 21.4056H51.352L55.8164 16.9416L60.9207 22.0459L55.8164 27.1502L51.3507 22.6845H43.4911L39.027 27.1489L33.9227 22.0446L38.3907 17.5765V9.57278L33.9238 5.10581L39.0281 0.00151791ZM4.85905 35.0315V48.686H13.3883V35.0315H16.2357V49.3191C16.2357 50.5376 15.2431 51.527 14.0214 51.527H4.22595C3.00112 51.527 2.01171 50.5376 2.01171 49.3191V35.0315H4.85905ZM92.7861 35.0315V48.686H101.156V51.5238H92.1562C90.9314 51.5238 89.942 50.5344 89.942 49.3159V35.0283H92.7893L92.7861 35.0315ZM74.0446 39.18H77.5855L80.8718 47.0412L83.9005 39.18H87.4414L80.6587 56H77.3309L79.2716 51.1325L74.0446 39.18ZM22.2835 51.5429V42.1928H27.9686V51.5429H30.8159V41.5629C30.8159 40.3444 29.8234 39.355 28.6017 39.355H21.6504C20.4256 39.355 19.4361 40.3444 19.4361 41.5629V51.5429H22.2835ZM61.3954 51.527V41.5629C61.3954 40.3444 60.406 39.355 59.1812 39.355H55.0549C51.6826 39.355 48.9466 42.0783 48.9466 45.441C48.9466 48.8037 51.6826 51.527 55.0549 51.527H61.3954ZM58.5481 42.196V48.6892H55.0549C53.2892 48.6892 51.8513 47.2894 51.7972 45.5428V45.4442C51.7972 43.6499 53.2542 42.196 55.0549 42.196H58.5481ZM114.919 51.6924V41.7283C114.919 40.5098 113.93 39.5204 112.705 39.5204H108.578C105.206 39.5204 102.47 42.2437 102.47 45.6064C102.47 48.9691 105.206 51.6924 108.578 51.6924H114.919ZM112.072 42.3582V48.8514H108.578C106.813 48.8514 105.375 47.4516 105.321 45.7019V45.6032C105.321 43.8089 106.778 42.355 108.578 42.355H112.072V42.3582ZM117.894 35.0315V51.6924H124.234C127.606 51.6924 130.342 48.9691 130.342 45.6064C130.342 42.2437 127.606 39.5204 124.234 39.5204H120.741V35.0315H117.894ZM120.741 48.8546V42.3614H124.234C126 42.3614 127.438 43.7612 127.492 45.511V45.6096C127.492 47.4039 126.035 48.8578 124.234 48.8578H120.741V48.8546ZM36.8606 51.5429H34.0132V39.3391H36.8606V51.5429ZM35.4353 37.9043C36.2211 37.9043 36.8574 37.2617 36.8574 36.4695C36.8574 35.6773 36.2211 35.0347 35.4353 35.0347C34.6495 35.0347 34.0132 35.6773 34.0132 36.4695C34.0132 37.2617 34.6495 37.9043 35.4353 37.9043ZM44.3273 36.4695V39.3582H47.1683V42.196H44.3273V48.6892H47.1683V51.527H42.902C42.1162 51.527 41.4768 50.8907 41.4768 50.1081V42.196H38.6326V39.3582H41.4768V36.4695H44.3241H44.3273ZM71.7031 39.3582V42.196H67.0837V51.5461H64.2364V41.5661C64.2364 40.3476 65.229 39.3582 66.4506 39.3582H71.7031Z" fill="white"/>
</svg>
